<svg width="96" height="96" viewBox="0 0 96 96" fill="none" xmlns="http://www.w3.org/2000/svg">
  <rect width="96" height="96" rx="48" fill="#050505"/>
  <path d="M64.8 29.4C58.4 30.9 52.6 36.4 50.9 44.1C49.8 49.1 51.2 54.3 54.7 58.8C49.1 55.7 45.2 50.3 45.2 43.8C45.2 33.8 53.1 25.8 62.9 24.4C61.5 20.6 58.3 17.8 54.2 17.8C47.6 17.8 42 24.4 42 33.6V52.7C42 63.8 33.1 72.8 22.1 72.8H18.8C23.4 78.4 31.1 82.1 40.1 82.1H61.1C72.3 82.1 81.4 73.1 81.4 61.9C81.4 50.1 72 39.2 59.8 37C61.2 33.7 63 31.4 64.8 29.4Z" fill="#F7F7F7"/>
  <path d="M64.8 29.4C62.9 31.5 61.2 33.7 59.8 37C66.2 38.2 71.8 41.8 75.7 46.9C74 36.9 70.1 28.2 64.8 29.4Z" fill="#C8C8C8"/>
  <path d="M29.6 63.8C35.9 62.4 40.2 57.9 42 52.7V40.6C38.9 50.9 30.7 59.1 19.5 59.1C17.8 59.1 16.2 58.9 14.6 58.6C16.8 62.1 22 65.4 29.6 63.8Z" fill="#C8C8C8"/>
</svg>
